<svg width="100%" height="100%" id="svg" viewBox="0 0 1440 490" xmlns="http://www.w3.org/2000/svg" class="transition duration-300 ease-in-out delay-150"><path d="M 0,500 L 0,125 C 83.72311920302303,98.53418069391961 167.44623840604606,72.06836138783923 226,94 C 284.55376159395394,115.93163861216077 317.93816557883883,186.2607351425627 391,175 C 464.06183442116117,163.7392648574373 576.8010992785985,70.88869804190999 643,70 C 709.1989007214015,69.11130195809001 728.8574373067673,160.18447268979733 784,175 C 839.1425626932327,189.81552731020267 929.7691514943317,128.37341119890073 1014,119 C 1098.2308485056683,109.62658880109929 1176.0659567159053,152.3218825145998 1246,162 C 1315.9340432840947,171.6781174854002 1377.9670216420473,148.3390587427001 1440,125 L 1440,500 L 0,500 Z" stroke="none" stroke-width="0" fill="#f78da7" fill-opacity="0.53" class="transition-all duration-300 ease-in-out delay-150 path-0" transform="rotate(-180 720 250)"></path><path d="M 0,500 L 0,291 C 71.63655101339745,309.15252490553075 143.2731020267949,327.3050498110615 206,330 C 268.7268979732051,332.6949501889385 322.54414290621776,319.9323256612848 385,322 C 447.45585709378224,324.0676743387152 518.550326348334,340.9656475437993 589,341 C 659.449673651666,341.0343524562007 729.2545517004465,324.2050841635177 798,311 C 866.7454482995535,297.7949158364823 934.4314668498798,288.21401580212984 1012,292 C 1089.5685331501202,295.78598419787016 1177.0195809000343,312.9388526279629 1250,315 C 1322.9804190999657,317.0611473720371 1381.4902095499829,304.03057368601856 1440,291 L 1440,500 L 0,500 Z" stroke="none" stroke-width="0" fill="#f78da7" fill-opacity="1" class="transition-all duration-300 ease-in-out delay-150 path-1" transform="rotate(-180 720 250)"></path></svg>
